<?xml version="1.0" encoding="UTF-8"?>
<!-- Generated by Pixelmator Pro 3.6.5 -->
<svg width="256" height="256" viewBox="0 0 256 256" xmlns="http://www.w3.org/2000/svg">
    <path id="Pfad" fill="#ffffff" stroke="none" d="M 18.785357 178.368774 C 18.785357 178.368774 29.816961 183.542999 37.46204 202.990051 C 37.46204 202.990051 47.345436 233.018097 94.146179 222.844009 C 94.189766 231.768127 94.276978 240.372467 94.320587 246.49147 C 94.349655 249.543686 96.835022 252 99.88726 252 L 172.268509 252 C 175.335297 252 177.820648 249.543686 177.83519 246.476913 C 177.893311 237.858047 177.995071 224.050369 177.995071 207.989868 C 177.995071 192.292725 172.61734 182.04599 166.585571 176.828125 C 204.055237 172.656769 243.414352 158.427612 243.414352 93.807709 C 243.414352 75.436218 236.888412 60.422211 226.089355 48.634796 C 227.833496 44.390778 233.603638 27.283783 224.432449 4.101456 C 224.432449 4.101456 210.31955 -0.418732 178.213104 21.353775 C 164.768768 17.618439 150.365204 15.758041 136.063339 15.685349 C 121.761513 15.758041 107.372467 17.618439 93.942688 21.353775 C 61.821693 -0.404205 47.679726 4.115982 47.679726 4.115982 C 38.537601 27.29834 44.307751 44.405304 46.05188 48.649353 C 35.281891 60.436722 28.712358 75.436218 28.712358 93.82222 C 28.712358 158.296783 67.99881 172.729431 105.381256 176.97348 C 100.570358 181.173904 96.21006 188.600998 94.698479 199.472702 C 85.091248 203.774872 60.731609 211.20195 45.732124 185.490631 C 45.732124 185.490631 36.837078 169.342926 19.933578 168.151093 C 19.933578 168.136566 3.524255 167.918564 18.785357 178.368774 Z"/>
</svg>
