<?xml version="1.0" encoding="UTF-8"?>
<!-- Generated by Pixelmator Pro 3.6.5 -->
<svg width="256" height="256" viewBox="0 0 256 256" xmlns="http://www.w3.org/2000/svg">
    <g id="Gruppe">
        <path id="Pfad" fill="#ffffff" stroke="none" d="M 85.706596 43.556595 C 39.147701 43.556595 1.406593 81.297699 1.406593 127.856598 C 1.406593 174.415482 39.147701 212.156586 85.706596 212.156586 C 132.265488 212.156586 170.006592 174.415482 170.006592 127.856598 C 170.006592 81.297699 132.265488 43.556595 85.706596 43.556595 Z M 85.706596 153.146591 C 71.738083 153.146591 60.416592 141.825104 60.416592 127.856598 C 60.416592 113.888077 71.738083 102.566589 85.706596 102.566589 C 99.675102 102.566589 110.99659 113.888077 110.99659 127.856598 C 111.016266 141.805435 99.72287 153.126923 85.774033 153.146591 C 85.751556 153.146591 85.729073 153.146591 85.706596 153.146591 Z"/>
        <path id="path1" fill="#ffffff" stroke="none" d="M 180.459793 106.781601 C 201.877625 112.946732 227.161987 106.781601 227.161987 106.781601 C 219.825073 138.815598 196.558273 158.878998 163.006882 161.320892 C 149.709961 192.185913 119.314194 212.17627 85.706596 212.156586 L 110.99659 131.773743 C 136.994705 49.154114 150.319733 43.556595 211.973938 43.556595 L 254.306595 43.556595 C 247.225403 74.747589 222.817734 98.573578 180.459793 106.781601 Z"/>
    </g>
</svg>
