<svg xmlns="http://www.w3.org/2000/svg" xmlns:xlink="http://www.w3.org/1999/xlink" version="1.1" width="256" height="256" viewBox="0 0 256 256" xml:space="preserve">
<g style="stroke: none; stroke-width: 0; stroke-dasharray: none; stroke-linecap: butt; stroke-linejoin: miter; stroke-miterlimit: 10; fill: none; fill-rule: nonzero; opacity: 1;" transform="translate(1.4065934065934016 1.4065934065934016) scale(2.81 2.81)">
	<path d="M 23.529 71.12 L 8.865 71.104 L 20.008 0.442 C 20.048 0.186 20.266 0 20.527 0 h 28.396 c 6.104 0 11.618 2.194 15.526 6.178 c 3.496 3.565 5.37 8.26 5.273 13.219 c -0.004 0.196 -0.022 0.392 -0.031 0.589 c -0.034 0.687 -0.093 1.374 -0.199 2.049 C 67.604 34.068 57.42 42.802 45.278 42.802 H 32.195 c -0.304 0 -0.602 0.028 -0.891 0.081 c -0.011 0.002 -0.02 0.006 -0.031 0.008 c -0.276 0.052 -0.545 0.125 -0.803 0.22 c -0.059 0.022 -0.111 0.055 -0.169 0.079 c -0.206 0.085 -0.409 0.174 -0.6 0.286 c -0.073 0.043 -0.136 0.098 -0.206 0.144 c -0.165 0.109 -0.331 0.216 -0.481 0.344 c -0.076 0.064 -0.139 0.141 -0.211 0.209 c -0.132 0.126 -0.266 0.249 -0.383 0.39 c -0.07 0.084 -0.126 0.181 -0.191 0.27 c -0.101 0.14 -0.206 0.276 -0.293 0.427 c -0.06 0.104 -0.103 0.219 -0.155 0.329 c -0.072 0.15 -0.148 0.296 -0.205 0.454 c -0.044 0.123 -0.069 0.254 -0.104 0.381 c -0.038 0.139 -0.088 0.273 -0.114 0.418 l -0.016 0.099 c -0.001 0.004 -0.002 0.008 -0.003 0.013 l -2.956 18.749 L 23.529 71.12 z" style="stroke: none; stroke-width: 1; stroke-dasharray: none; stroke-linecap: butt; stroke-linejoin: miter; stroke-miterlimit: 10; fill: rgb(255,255,255); fill-rule: nonzero; opacity: 1;" transform=" matrix(1 0 0 1 0 0) " stroke-linecap="round"/>
	<path d="M 80.903 40.915 c -1.886 12.034 -12.07 20.767 -24.213 20.767 h -8.36 c -2.435 0 -4.478 1.745 -4.858 4.15 l -3.741 23.723 C 39.691 89.812 39.472 90 39.213 90 l -14.214 -0.017 l 4.446 -28.2 l 2.231 -14.147 c 0.041 -0.257 0.259 -0.443 0.518 -0.443 h 13.083 c 1.788 0 3.539 -0.163 5.241 -0.471 c 0.067 -0.012 0.131 -0.032 0.197 -0.044 c 0.778 -0.147 1.548 -0.318 2.303 -0.525 c 0.17 -0.047 0.333 -0.111 0.501 -0.161 c 0.645 -0.19 1.287 -0.387 1.912 -0.62 c 0.222 -0.083 0.433 -0.186 0.653 -0.274 c 0.56 -0.225 1.121 -0.449 1.663 -0.707 c 0.253 -0.12 0.492 -0.263 0.741 -0.39 c 0.494 -0.253 0.991 -0.502 1.468 -0.783 c 0.267 -0.157 0.518 -0.336 0.779 -0.501 c 0.441 -0.279 0.886 -0.552 1.311 -0.855 c 0.271 -0.193 0.526 -0.408 0.79 -0.61 c 0.394 -0.302 0.793 -0.597 1.171 -0.919 c 0.267 -0.228 0.516 -0.476 0.775 -0.713 c 0.352 -0.323 0.71 -0.639 1.047 -0.979 c 0.257 -0.261 0.494 -0.541 0.742 -0.811 c 0.314 -0.343 0.633 -0.679 0.93 -1.037 c 0.241 -0.29 0.46 -0.599 0.689 -0.899 c 0.277 -0.363 0.561 -0.719 0.822 -1.095 c 0.22 -0.318 0.417 -0.653 0.625 -0.981 c 0.242 -0.381 0.49 -0.757 0.715 -1.151 c 0.195 -0.343 0.367 -0.702 0.549 -1.055 c 0.206 -0.4 0.42 -0.794 0.608 -1.205 c 0.168 -0.367 0.311 -0.747 0.464 -1.122 c 0.17 -0.417 0.348 -0.829 0.5 -1.256 c 0.137 -0.386 0.249 -0.786 0.371 -1.18 c 0.134 -0.435 0.275 -0.865 0.39 -1.309 c 0.104 -0.403 0.182 -0.817 0.269 -1.227 c 0.08 -0.373 0.179 -0.737 0.245 -1.116 C 79.224 27.365 81.987 34.01 80.903 40.915 z" style="stroke: none; stroke-width: 1; stroke-dasharray: none; stroke-linecap: butt; stroke-linejoin: miter; stroke-miterlimit: 10; fill: rgb(255,255,255); fill-rule: nonzero; opacity: 1;" transform=" matrix(1 0 0 1 0 0) " stroke-linecap="round"/>
</g>
</svg>